<?xml version="1.0" encoding="UTF-8"?><svg id="Camada_1" xmlns="http://www.w3.org/2000/svg" viewBox="0 0 568.54 239.38"><path d="M563.1,120.68c-42.29-16.54-86.41-29-131.72-33.36-32.33-3.12-66.66-2.24-97.57,8.72-22.35,7.93-43.94,21.79-54.91,43.54-10.83,21.47-11.33,48.6,1.91,69.17,11.84,18.37,34.66,33.57,57.31,30.14,27.01-4.09,30.04-32.4,25.24-54.47-8.36-38.42-16.02-78.1-11.99-117.6,1.06-10.39,3.15-21.13,7.37-30.74,2.78-6.32,7.46-13.02,11.12-15.76,8-6.01,19.02-6.54,24.13,4.73,7.46,16.43.45,40.85-5.84,57.39-7.42,19.53-19.78,41.33-38.57,51.9-16.61,9.35-32.08,1.34-43.68-11.74-21.04-23.71-29.4-57.12-49.49-82.07-8.14-10.11-19.42-18.1-32.98-16.97-18.83,1.56-34.37,17.02-46.24,30.33-26.23,29.42-45.71,63.93-66.02,97.45-1.5,2.48-.61.44,1.8.28,1.7-.11,1.93.31.85.03,3.65.93.55.54.62.1.17-1.13,1.23,2.15.3.14-.25-.53-1-1.02-1.36-1.51,1.37,1.88-.85-1.28-1.17-1.8-.74-1.19-1.47-2.4-2.18-3.62-1.76-3.06-3.39-6.2-5.05-9.31-6.82-12.78-14.54-28.05-27.96-35.05-18.78-9.78-36.52,4.81-47.82,19.01S9.03,150.13.92,166.49c-4.62,9.32,9.36,17.54,14,8.18,8.13-16.4,16.8-33.43,28.87-47.36,3.23-3.72,6.7-7.41,10.8-10.18,1.12-.75,3.7-2.22,4.12-2.39,1.79-.73,3.92-1.14,4.25-1.18.72-.09,1.55-.08,2.27,0,2.44.25-1.64-.3.76.12.69.12,1.46.33,2.11.6,2.23.91-1.41-.75.77.34,3.21,1.6,4.19,2.54,6.98,5.49,4.27,4.52,7.9,10.55,11.33,16.67,5.24,9.34,10.91,27.02,22.36,30.52,6.97,2.13,12.09-2.35,15.65-7.76,12.25-18.57,22.64-38.33,35.13-56.81,13.98-20.69,30.03-45.4,52.06-58.51,5.8-3.45,9.96-4.97,15.78-4.48,2.17.18-1.7-.38.41.09.42.09.84.19,1.25.29.62.15,1.23.36,1.84.56,2.04.68-1.5-.75.45.16,3.16,1.47,4.67,2.64,6.19,4.01,9.97,9.03,16.44,22.12,23.05,34.89,7.54,14.56,14.68,29.48,24.15,42.92,10.75,15.25,25.19,30.05,44.74,32.06,21.13,2.17,39.3-12.4,51.58-28.08,14.71-18.78,24.98-42,29.18-65.48,3.1-17.37,4.41-40.5-9.87-53.64-10.98-10.09-27.73-9.54-39.44-1.19-14.68,10.47-21.37,29.13-24.51,46.17-6.13,33.27-2.33,67.93,3.37,100.98,2.04,11.83,4.64,23.53,7.19,35.26,1.43,6.58,2.53,13.53,1.31,20.24-1.44,7.95-6.39,13.22-14.13,14.11-19.9,2.28-39.73-15.85-45.52-33.67-6.73-20.72.64-43.69,16.03-58.48,18.47-17.75,45.61-25,70.43-27.61,38.81-4.07,78.23,1.52,115.84,11.1,22.82,5.82,45.17,13.3,67.09,21.88,9.72,3.8,13.93-11.87,4.31-15.63h0Z"/></svg>